<svg xmlns="http://www.w3.org/2000/svg" width="345.73" height="69.506" viewBox="0 0 345.73 69.506"><g id="Layer_3"><path fill="#FC3429" d="M82.796 1.348c.22-.215.3-.56.173-.86C82.84.186 82.545 0 82.23 0H34.868C15.608 0 0 15.495 0 34.607 0 53.714 15.61 69.21 34.868 69.21c9.67 0 18.31-3.864 24.64-10.146 9.974-9.683 15.595-27.898 19.97-44.486l.14-.532.314-1.192c.057-.23.014-.482-.143-.683-.158-.197-.392-.307-.633-.307h-5.925c-.313 0-.607-.18-.738-.484-.125-.306-.047-.646.175-.865l10.126-9.167z"/><path fill="#fff" d="M40.363 45.178c0 .453-.38.83-.833.83H26.213c-.447 0-.826-.377-.826-.83V31.864c0-.454.38-.832.826-.832H39.53c.453 0 .833.378.833.832v2.494h4.992v-2.494c0-3.21-2.61-5.827-5.826-5.827H26.212c-3.208 0-5.822 2.615-5.822 5.827v13.313c0 3.214 2.615 5.822 5.823 5.822H39.53c3.215 0 5.826-2.61 5.826-5.823v-2.494h-4.992v2.495zm9.154-29.124H36.2c-3.21 0-5.824 2.616-5.824 5.826v2.495h4.99V21.88c0-.45.384-.832.833-.832h13.317c.45 0 .83.382.83.832v13.31c0 .453-.38.835-.83.835H36.2c-.45 0-.833-.383-.833-.835v-2.494h-4.99v2.494c0 3.213 2.612 5.826 5.822 5.826h13.317c3.213 0 5.823-2.612 5.823-5.826V21.88c0-3.21-2.61-5.826-5.823-5.826"/><g fill="#fff"><path d="M126.375 58.635h-8.85V11.36h8.85v47.275zM142.95 17.997h-8.848V11.36h8.85v6.637zm0 40.638h-8.848v-32.79h8.85v32.79zM158.316 25.846l.394 4.697c1.09-1.677 2.434-2.98 4.03-3.91 1.596-.928 3.384-1.393 5.364-1.393 3.313 0 5.898 1.04 7.758 3.122 1.858 2.08 2.788 5.344 2.788 9.788v20.485h-8.88V38.133c0-2.207-.443-3.77-1.332-4.692-.89-.92-2.233-1.38-4.03-1.38-1.173 0-2.224.237-3.152.713-.93.476-1.708 1.15-2.333 2.02v23.842h-8.85v-32.79h8.243zM196.53 44.907h-2.425v13.728h-8.85V11.36h8.85v26.82h2.182l7.606-12.334h10.242L203.65 40.694l12.092 17.94H205.59l-9.06-13.727zM220.803 58.635V32.058h-4.88v-6.212h4.88V22.21c0-3.677 1.06-6.51 3.182-8.5 2.12-1.99 5.102-2.985 8.94-2.985.747 0 1.51.056 2.287.167.777.11 1.632.268 2.56.47l-.756 6.576c-.485-.08-.955-.15-1.41-.212-.454-.06-.984-.09-1.59-.09-1.436 0-2.52.393-3.258 1.18-.738.79-1.106 1.92-1.106 3.395v3.637h6.516v6.212h-6.516v26.576h-8.85zM249.986 17.997h-8.85V11.36h8.85v6.637zm0 40.638h-8.85v-32.79h8.85v32.79zM274.5 33.452l-3.24-.09c-1.314 0-2.396.27-3.243.817-.85.544-1.496 1.312-1.94 2.302v22.152h-8.817V25.846h8.212l.394 4.85c.768-1.718 1.763-3.056 2.985-4.016 1.223-.96 2.632-1.44 4.23-1.44.443 0 .853.037 1.227.107.373.07.752.157 1.136.258l-.942 7.847zM293.5 59.27c-4.726 0-8.504-1.515-11.332-4.545-2.83-3.03-4.243-6.88-4.243-11.546v-1.213c0-4.87 1.34-8.88 4.016-12.03 2.678-3.153 6.27-4.718 10.774-4.698 4.424 0 7.858 1.332 10.303 4 2.444 2.666 3.667 6.272 3.667 10.818v4.818h-19.576l-.06.18c.16 2.154.883 3.926 2.166 5.313 1.282 1.388 3.024 2.082 5.227 2.082 1.96 0 3.587-.197 4.88-.59 1.293-.396 2.707-1.017 4.243-1.865l2.394 5.468c-1.333 1.097-3.08 2.005-5.242 2.725-2.163.72-4.567 1.08-7.214 1.08zm-.786-27.212c-1.637 0-2.93.626-3.88 1.88-.95 1.252-1.535 2.898-1.757 4.94l.09.15h10.85v-.788c0-1.88-.44-3.38-1.318-4.5-.88-1.12-2.21-1.682-3.986-1.682z"/></g></g></svg>